<svg data-v-423bf9ae="" xmlns="http://www.w3.org/2000/svg" viewBox="0 0 395 155" class="iconLeftSlogan"><!----><!----><!----><g data-v-423bf9ae="" id="52071aae-e6b8-48ad-9572-864298268651" fill="#022239" transform="matrix(5.743653863991078,0,0,5.743653863991078,165.7988967313737,-1.5784719892036527)"><path d="M5.54 6.33L5.54 6.33L3.29 6.33C3.19 6.33 3.12 6.40 3.12 6.50L3.12 10.50C3.12 10.71 3.46 10.71 3.46 10.50L3.46 6.66L5.54 6.66C5.75 6.66 5.75 6.33 5.54 6.33ZM6.47 2.34L6.47 2.34L3.29 2.34C3.19 2.34 3.12 2.41 3.12 2.49L3.12 4.49C3.12 4.58 3.19 4.66 3.29 4.66L5.54 4.66C5.75 4.66 5.75 4.33 5.54 4.33L3.46 4.33L3.46 2.66L6.47 2.66C6.68 2.66 6.68 2.34 6.47 2.34ZM1.46 10.50L1.46 10.50L1.46 0.66L6.47 0.66C6.68 0.66 6.68 0.34 6.47 0.34L1.29 0.34C1.20 0.34 1.12 0.41 1.12 0.49L1.12 10.50C1.12 10.71 1.46 10.71 1.46 10.50ZM9.73 0.57L9.73 0.57L11.76 4.05C11.83 4.16 11.98 4.16 12.05 4.05L14.10 0.57C14.14 0.49 14.11 0.39 14.04 0.35C13.96 0.31 13.87 0.34 13.80 0.41L11.90 3.64L10.00 0.41C9.95 0.34 9.86 0.31 9.79 0.35C9.70 0.39 9.67 0.49 9.73 0.57ZM16.25 0.41L16.25 0.41L12.77 5.94C12.75 5.98 12.75 6.01 12.75 6.03L12.75 10.47C12.75 10.58 12.82 10.65 12.91 10.65C12.99 10.65 13.06 10.58 13.06 10.47L13.06 6.08L16.53 0.57C16.58 0.50 16.56 0.41 16.48 0.35C16.41 0.31 16.31 0.34 16.25 0.41ZM11.07 10.47L11.07 10.47L11.07 6.02C11.07 5.99 11.06 5.96 11.05 5.94L7.56 0.41C7.50 0.34 7.41 0.31 7.34 0.35C7.27 0.41 7.24 0.50 7.29 0.57L10.74 6.08L10.74 10.47C10.74 10.58 10.81 10.65 10.91 10.65C11.00 10.65 11.07 10.58 11.07 10.47ZM17.33 9.98L17.33 9.98C17.89 10.26 18.42 10.44 18.93 10.56C21.48 11.16 23.73 10.07 23.73 7.53C23.73 5.00 20.66 4.48 20.03 4.00C19.84 3.85 19.73 3.63 19.73 3.42C19.71 2.94 20.09 2.69 20.51 2.63C21.17 2.56 22.02 2.83 22.51 3.02C22.71 3.11 22.83 2.81 22.64 2.73C21.83 2.39 21.20 2.27 20.52 2.31C19.88 2.34 19.38 2.81 19.40 3.46C19.49 4.73 21.22 4.47 22.60 5.75C23.79 6.85 23.58 8.60 22.62 9.56C21.38 10.81 19.11 10.54 17.50 9.70C17.30 9.60 17.15 9.88 17.33 9.98ZM22.89 0.71L22.89 0.71C22.23 0.49 21.73 0.38 21.34 0.32C19.08 0.01 17.39 1.32 17.39 3.49C17.39 6.09 20.45 6.45 21.11 7C21.43 7.29 21.49 7.80 21.15 8.11C20.45 8.75 18.65 8.23 17.77 7.62C17.60 7.50 17.40 7.76 17.58 7.88C18.48 8.54 19.61 8.76 20.50 8.71C21.15 8.67 21.74 8.20 21.70 7.55C21.62 6.26 19.91 6.50 18.54 5.31C17.33 4.23 17.56 2.45 18.45 1.48C19.56 0.28 21.28 0.49 22.78 1.01C22.97 1.09 23.09 0.78 22.89 0.71ZM31.72 2.34L31.72 2.34L29.22 2.34C29.13 2.34 29.06 2.41 29.06 2.49L29.06 10.50C29.06 10.58 29.13 10.65 29.22 10.65C29.30 10.65 29.37 10.58 29.37 10.50L29.37 2.67L31.72 2.67C31.81 2.67 31.88 2.59 31.88 2.49C31.88 2.41 31.81 2.34 31.72 2.34ZM24.72 0.66L24.72 0.66L31.71 0.66C31.81 0.66 31.88 0.59 31.88 0.50C31.88 0.42 31.81 0.35 31.71 0.35L24.72 0.35C24.64 0.35 24.57 0.42 24.57 0.50C24.57 0.59 24.64 0.66 24.72 0.66ZM24.72 2.67L24.72 2.67L27.06 2.67L27.06 10.50C27.06 10.58 27.13 10.65 27.23 10.65C27.31 10.65 27.38 10.58 27.38 10.50L27.38 2.49C27.38 2.41 27.31 2.34 27.23 2.34L24.72 2.34C24.64 2.34 24.57 2.41 24.57 2.49C24.57 2.59 24.64 2.67 24.72 2.67ZM39.70 2.34L39.70 2.34L37.20 2.34C37.11 2.34 37.04 2.41 37.04 2.49L37.04 10.50C37.04 10.58 37.11 10.65 37.20 10.65C37.28 10.65 37.35 10.58 37.35 10.50L37.35 2.67L39.70 2.67C39.79 2.67 39.86 2.59 39.86 2.49C39.86 2.41 39.79 2.34 39.70 2.34ZM32.70 0.66L32.70 0.66L39.69 0.66C39.79 0.66 39.86 0.59 39.86 0.50C39.86 0.42 39.79 0.35 39.69 0.35L32.70 0.35C32.62 0.35 32.55 0.42 32.55 0.50C32.55 0.59 32.62 0.66 32.70 0.66ZM32.70 2.67L32.70 2.67L35.04 2.67L35.04 10.50C35.04 10.58 35.11 10.65 35.21 10.65C35.29 10.65 35.36 10.58 35.36 10.50L35.36 2.49C35.36 2.41 35.29 2.34 35.21 2.34L32.70 2.34C32.62 2.34 32.55 2.41 32.55 2.49C32.55 2.59 32.62 2.67 32.70 2.67Z"></path></g><defs data-v-423bf9ae=""><linearGradient data-v-423bf9ae="" gradientTransform="rotate(25)" id="3429dedf-ae04-48e3-9c6d-12ae18784ff4" x1="0%" y1="0%" x2="100%" y2="0%"><stop data-v-423bf9ae="" offset="0%" style="stop-color: rgb(0, 10, 104); stop-opacity: 1;"></stop><stop data-v-423bf9ae="" offset="100%" style="stop-color: rgb(0, 196, 238); stop-opacity: 1;"></stop></linearGradient></defs><g data-v-423bf9ae="" id="dbb7f0bf-9e89-463b-9a06-2c4b395913ef" transform="matrix(1.3119208441840278,0,0,1.3119208441840278,-4.378608928139627,-9.986156757010349)" stroke="none" fill="url(#3429dedf-ae04-48e3-9c6d-12ae18784ff4)"><path d="M80.559 126.2H45.364A3.407 3.407 0 0 1 42 123.379c-1.243-7.108-2.784-12.237-4.021-13.389-2.088-1.939-6.991-1.423-10.932-1.009-1.327.14-2.58.273-3.7.318-9.677.489-10.232-5.734-10.786-11.76a36.514 36.514 0 0 0-1.093-6.94 8.362 8.362 0 0 0-4.128-5.165c-1.613-1.064-3.442-2.27-3.282-5.32.077-1.476 1.24-2.763 2.712-4.392 2.269-2.512 5.376-5.951 5.389-11.391.007-1.41-.14-3.293-.282-5.113-.114-1.471-.222-2.861-.259-4.054-.6-19.118 15.964-34.237 38.517-35.17a1.25 1.25 0 1 1 .1 2.5c-21.135.872-36.669 14.885-36.118 32.592.035 1.136.141 2.5.253 3.938.146 1.871.3 3.805.289 5.316-.015 6.394-3.637 10.4-6.034 13.057-1 1.111-2.04 2.258-2.07 2.848-.082 1.558.563 2.048 2.161 3.1a10.852 10.852 0 0 1 5.149 6.55 38.9 38.9 0 0 1 1.183 7.415c.566 6.153.9 9.87 8.182 9.491 1.054-.043 2.269-.171 3.554-.307 4.674-.493 9.974-1.052 12.9 1.665 2.167 2.015 3.8 9.154 4.782 14.788a.91.91 0 0 0 .9.753h35.2a1.25 1.25 0 0 1 0 2.5z"></path><path d="M18.605 69.377a3.64 3.64 0 0 1-1.9-.52 1.25 1.25 0 0 1 1.282-2.146c1.039.62 2.621-.7 2.637-.713a1.25 1.25 0 0 1 1.649 1.879 5.965 5.965 0 0 1-3.668 1.5zM13.715 92.712a7.36 7.36 0 0 1-.927-.049 1.25 1.25 0 0 1 .339-2.477A11.747 11.747 0 0 0 18.879 89a1.25 1.25 0 1 1 1.036 2.275 15.154 15.154 0 0 1-6.2 1.437zM83.142 98.617h-.074c-.255-.015-25.576-1.886-29.195-34.2a61.434 61.434 0 0 1-.02-11.826 73.261 73.261 0 0 0-1.774-24.1c-1.267-5.725 1.152-10.68 6.166-12.625 4.566-1.769 11.2-.693 14.964 5.859 2.656 4.615 5.94 9.2 9.116 13.642 4.419 6.174 8.988 12.559 11.955 19.142C107.773 84.448 84 98.318 83.757 98.455a1.242 1.242 0 0 1-.615.162zM62.366 17.6a8.93 8.93 0 0 0-3.218.589c-3.022 1.172-5.825 4.35-4.628 9.753a76.346 76.346 0 0 1 1.828 24.807 59.355 59.355 0 0 0 .009 11.38c3.154 28.164 23.516 31.6 26.5 31.95 2.814-1.74 20.985-14.27 9.143-40.547-2.865-6.357-7.36-12.639-11.708-18.714-3.211-4.487-6.533-9.128-9.25-13.851a9.943 9.943 0 0 0-8.676-5.367z"></path><path d="M85.126 125.147a1.249 1.249 0 0 1-1.112-.676C81.5 119.6 80.727 109.678 81.9 97.25c1.66-17.626-3.311-43.8-13.356-54.669a1.25 1.25 0 1 1 1.836-1.7c10.84 11.73 15.712 38.513 14.009 56.6-1.11 11.787-.418 21.448 1.85 25.84a1.25 1.25 0 0 1-.538 1.684 1.237 1.237 0 0 1-.575.142zM87.043 100.118a1.25 1.25 0 0 1-.18-2.486c13.267-1.954 27.356-11.121 27.112-30.991-.082-6.672 1.209-12.867 2.247-17.843 1.165-5.584 2.084-9.994.614-12.212a4.5 4.5 0 0 0-3.078-1.734c-4.539-.9-7.609 2.449-11.49 6.683a42.842 42.842 0 0 1-7.894 7.26A1.25 1.25 0 0 1 93 46.705a40.951 40.951 0 0 0 7.424-6.859c4.061-4.43 7.895-8.615 13.817-7.448a6.838 6.838 0 0 1 4.678 2.807c2.047 3.088 1.033 7.949-.251 14.1a78.234 78.234 0 0 0-2.194 17.3c.264 21.505-15.591 31.485-29.248 33.5a1.14 1.14 0 0 1-.183.013zM78.81 115.659a1.247 1.247 0 0 1-.793-.284 33.135 33.135 0 0 1-4.548-4.606 1.25 1.25 0 1 1 1.985-1.52 31.013 31.013 0 0 0 4.151 4.194 1.25 1.25 0 0 1-.8 2.216z"></path><path d="M73.747 111.266c-9.914 0-15.422-4.094-17.141-7.674a6.307 6.307 0 0 1 .768-7.026 5.685 5.685 0 0 1 5.686-2c4.911.966 10.089 7.162 12.593 15.065a1.25 1.25 0 0 1-1.166 1.628q-.373.008-.74.007zM61.781 96.938a3.117 3.117 0 0 0-2.488 1.23 3.851 3.851 0 0 0-.434 4.342c1.447 3.012 6.244 5.982 13.841 6.238-2.6-6.848-7.025-11.119-10.123-11.729a4.159 4.159 0 0 0-.796-.081zM93.729 116.069a1.249 1.249 0 0 1-1.17-1.688c2.476-6.618 5.141-10.239 7.92-10.762a4.036 4.036 0 0 1 3.871 1.525 3.817 3.817 0 0 1 .831 3.819c-.94 2.975-5.219 5.685-11.167 7.073a1.205 1.205 0 0 1-.285.033zm7.444-10.015a1.264 1.264 0 0 0-.233.022c-.587.111-2.553.945-5.111 6.867 4.191-1.357 6.5-3.266 6.967-4.733a1.318 1.318 0 0 0-.31-1.4 1.787 1.787 0 0 0-1.313-.756z"></path><path d="M87.948 120.471a1.25 1.25 0 0 1-.627-2.332 21.685 21.685 0 0 0 5.442-4.113 1.25 1.25 0 0 1 1.937 1.581 23.35 23.35 0 0 1-6.126 4.7 1.249 1.249 0 0 1-.626.164zM87.95 31.475a6.185 6.185 0 0 1-3.339-.875c-2.2-1.387-2.907-4.2-3.135-5.758a2.083 2.083 0 0 1 1.455-2.3c1.5-.464 4.351-1.032 6.548.358s2.907 4.2 3.135 5.757a2.083 2.083 0 0 1-1.455 2.3 11.2 11.2 0 0 1-3.209.518zm-3.943-6.647c.19 1.037.694 2.871 1.939 3.658 1.245.788 3.117.453 4.137.18-.191-1.037-.694-2.871-1.939-3.658s-3.118-.453-4.137-.18zM37.657 17.6a11.333 11.333 0 0 1-3.086-.469 2.083 2.083 0 0 1-1.491-2.281c.2-1.558.874-4.384 3.049-5.8s5.034-.893 6.541-.454a2.08 2.08 0 0 1 1.49 2.284c-.2 1.558-.874 4.383-3.05 5.8a6.251 6.251 0 0 1-3.453.92zm-2.046-2.777c1.023.259 2.9.564 4.133-.241 1.234-.805 1.71-2.646 1.885-3.686-1.025-.259-2.9-.565-4.133.241s-1.71 2.649-1.885 3.689z"></path></g><!----><g data-v-423bf9ae="" id="7c18abbe-a719-4e94-a022-181d925d3868" fill="#022239" transform="matrix(0.2827398276475228,0,0,0.2827398276475228,171.85573702626857,58.394036854345316)"><path d="M1.33 15.68L1.33 5.88L7.35 5.88L7.35 6.97L2.51 6.97L2.51 10.22L7.27 10.22L7.27 11.31L2.51 11.31L2.51 15.68L1.33 15.68ZM22.92 12.15L22.92 15.68L21.74 15.68L21.74 12.40L21.74 12.40Q21.74 12.04 21.57 11.84L21.57 11.84L21.57 11.84Q21.41 11.65 20.99 11.65L20.99 11.65L17.93 11.65L17.93 15.68L16.76 15.68L16.76 5.88L20.26 5.88L20.26 5.88Q21.01 5.88 21.57 6.10L21.57 6.10L21.57 6.10Q22.13 6.31 22.50 6.68L22.50 6.68L22.50 6.68Q22.88 7.04 23.06 7.53L23.06 7.53L23.06 7.53Q23.25 8.01 23.25 8.54L23.25 8.54L23.25 8.96L23.25 8.96Q23.25 9.51 22.95 10.05L22.95 10.05L22.95 10.05Q22.65 10.60 22.02 10.89L22.02 10.89L22.02 11.06L22.02 11.06Q22.44 11.13 22.68 11.40L22.68 11.40L22.68 11.40Q22.92 11.66 22.92 12.15L22.92 12.15ZM17.93 6.97L17.93 10.56L20.12 10.56L20.12 10.56Q21.11 10.56 21.59 10.13L21.59 10.13L21.59 10.13Q22.08 9.70 22.08 8.88L22.08 8.88L22.08 8.62L22.08 8.62Q22.08 7.88 21.59 7.43L21.59 7.43L21.59 7.43Q21.11 6.97 20.12 6.97L20.12 6.97L17.93 6.97ZM32.45 15.68L32.45 5.88L38.39 5.88L38.39 6.97L33.63 6.97L33.63 10.22L38.30 10.22L38.30 11.31L33.63 11.31L33.63 14.59L38.47 14.59L38.47 15.68L32.45 15.68ZM48.02 15.68L48.02 5.88L53.96 5.88L53.96 6.97L49.20 6.97L49.20 10.22L53.87 10.22L53.87 11.31L49.20 11.31L49.20 14.59L54.04 14.59L54.04 15.68L48.02 15.68ZM81.54 15.68L81.54 12.24L81.28 12.24L78.22 5.88L79.53 5.88L82.04 11.23L82.21 11.23L84.71 5.88L86.03 5.88L82.96 12.24L82.71 12.24L82.71 15.68L81.54 15.68ZM94.25 11.87L94.25 9.69L94.25 9.69Q94.25 7.78 95.16 6.73L95.16 6.73L95.16 6.73Q96.07 5.68 97.69 5.68L97.69 5.68L97.69 5.68Q99.32 5.68 100.23 6.73L100.23 6.73L100.23 6.73Q101.14 7.78 101.14 9.69L101.14 9.69L101.14 11.87L101.14 11.87Q101.14 13.83 100.23 14.85L100.23 14.85L100.23 14.85Q99.32 15.88 97.69 15.88L97.69 15.88L97.69 15.88Q96.07 15.88 95.16 14.85L95.16 14.85L95.16 14.85Q94.25 13.83 94.25 11.87L94.25 11.87ZM97.69 14.78L97.69 14.78L97.69 14.78Q98.83 14.78 99.39 14.01L99.39 14.01L99.39 14.01Q99.96 13.23 99.96 11.79L99.96 11.79L99.96 9.77L99.96 9.77Q99.96 8.43 99.39 7.60L99.39 7.60L99.39 7.60Q98.83 6.78 97.69 6.78L97.69 6.78L97.69 6.78Q96.56 6.78 95.99 7.60L95.99 7.60L95.99 7.60Q95.42 8.43 95.42 9.77L95.42 9.77L95.42 11.79L95.42 11.79Q95.42 13.23 95.99 14.01L95.99 14.01L95.99 14.01Q96.56 14.78 97.69 14.78ZM109.90 5.88L111.08 5.88L111.08 12.38L111.08 12.38Q111.08 13.57 111.63 14.17L111.63 14.17L111.63 14.17Q112.18 14.78 113.26 14.78L113.26 14.78L113.26 14.78Q114.34 14.78 114.89 14.17L114.89 14.17L114.89 14.17Q115.44 13.57 115.44 12.38L115.44 12.38L115.44 5.88L116.62 5.88L116.62 12.38L116.62 12.38Q116.62 14.08 115.72 14.98L115.72 14.98L115.72 14.98Q114.83 15.88 113.26 15.88L113.26 15.88L113.26 15.88Q111.69 15.88 110.80 14.98L110.80 14.98L110.80 14.98Q109.90 14.08 109.90 12.38L109.90 12.38L109.90 5.88ZM131.89 12.15L131.89 15.68L130.72 15.68L130.72 12.40L130.72 12.40Q130.72 12.04 130.55 11.84L130.55 11.84L130.55 11.84Q130.38 11.65 129.96 11.65L129.96 11.65L126.91 11.65L126.91 15.68L125.73 15.68L125.73 5.88L129.23 5.88L129.23 5.88Q129.99 5.88 130.55 6.10L130.55 6.10L130.55 6.10Q131.11 6.31 131.48 6.68L131.48 6.68L131.48 6.68Q131.85 7.04 132.04 7.53L132.04 7.53L132.04 7.53Q132.23 8.01 132.23 8.54L132.23 8.54L132.23 8.96L132.23 8.96Q132.23 9.51 131.93 10.05L131.93 10.05L131.93 10.05Q131.63 10.60 131.00 10.89L131.00 10.89L131.00 11.06L131.00 11.06Q131.42 11.13 131.66 11.40L131.66 11.40L131.66 11.40Q131.89 11.66 131.89 12.15L131.89 12.15ZM126.91 6.97L126.91 10.56L129.09 10.56L129.09 10.56Q130.09 10.56 130.57 10.13L130.57 10.13L130.57 10.13Q131.05 9.70 131.05 8.88L131.05 8.88L131.05 8.62L131.05 8.62Q131.05 7.88 130.57 7.43L130.57 7.43L130.57 7.43Q130.09 6.97 129.09 6.97L129.09 6.97L126.91 6.97ZM146.71 9.21L146.71 8.71L146.71 8.71Q146.71 8.23 146.52 7.87L146.52 7.87L146.52 7.87Q146.33 7.50 146.01 7.27L146.01 7.27L146.01 7.27Q145.68 7.03 145.26 6.90L145.26 6.90L145.26 6.90Q144.84 6.78 144.38 6.78L144.38 6.78L144.38 6.78Q143.98 6.78 143.61 6.88L143.61 6.88L143.61 6.88Q143.25 6.99 142.96 7.18L142.96 7.18L142.96 7.18Q142.67 7.38 142.51 7.66L142.51 7.66L142.51 7.66Q142.34 7.95 142.34 8.33L142.34 8.33L142.34 8.41L142.34 8.41Q142.34 8.82 142.51 9.11L142.51 9.11L142.51 9.11Q142.67 9.39 143.00 9.60L143.00 9.60L143.00 9.60Q143.33 9.80 143.82 9.93L143.82 9.93L143.82 9.93Q144.31 10.07 144.97 10.16L144.97 10.16L144.97 10.16Q146.51 10.40 147.24 11.07L147.24 11.07L147.24 11.07Q147.97 11.73 147.97 12.85L147.97 12.85L147.97 13.02L147.97 13.02Q147.97 13.65 147.75 14.17L147.75 14.17L147.75 14.17Q147.53 14.70 147.10 15.08L147.10 15.08L147.10 15.08Q146.68 15.46 146.05 15.67L146.05 15.67L146.05 15.67Q145.42 15.88 144.59 15.88L144.59 15.88L144.59 15.88Q143.65 15.88 142.93 15.60L142.93 15.60L142.93 15.60Q142.21 15.33 141.73 14.85L141.73 14.85L141.73 14.85Q141.25 14.36 140.99 13.71L140.99 13.71L140.99 13.71Q140.74 13.06 140.74 12.29L140.74 12.29L140.74 11.87L141.92 11.87L141.92 12.21L141.92 12.21Q141.92 13.50 142.63 14.14L142.63 14.14L142.63 14.14Q143.33 14.78 144.59 14.78L144.59 14.78L144.59 14.78Q145.68 14.78 146.24 14.30L146.24 14.30L146.24 14.30Q146.79 13.82 146.79 13.02L146.79 13.02L146.79 12.94L146.79 12.94Q146.79 12.17 146.22 11.76L146.22 11.76L146.22 11.76Q145.66 11.35 144.38 11.17L144.38 11.17L144.38 11.17Q143.64 11.07 143.04 10.87L143.04 10.87L143.04 10.87Q142.45 10.67 142.03 10.34L142.03 10.34L142.03 10.34Q141.61 10.01 141.39 9.55L141.39 9.55L141.39 9.55Q141.16 9.09 141.16 8.46L141.16 8.46L141.16 8.29L141.16 8.29Q141.16 7.71 141.40 7.24L141.40 7.24L141.40 7.24Q141.64 6.76 142.06 6.41L142.06 6.41L142.06 6.41Q142.49 6.06 143.09 5.87L143.09 5.87L143.09 5.87Q143.68 5.68 144.40 5.68L144.40 5.68L144.40 5.68Q145.22 5.68 145.87 5.92L145.87 5.92L145.87 5.92Q146.52 6.16 146.97 6.56L146.97 6.56L146.97 6.56Q147.42 6.96 147.65 7.50L147.65 7.50L147.65 7.50Q147.88 8.04 147.88 8.62L147.88 8.62L147.88 9.21L146.71 9.21ZM157.00 15.68L157.00 5.88L162.93 5.88L162.93 6.97L158.17 6.97L158.17 10.22L162.85 10.22L162.85 11.31L158.17 11.31L158.17 14.59L163.02 14.59L163.02 15.68L157.00 15.68ZM172.47 15.68L172.47 5.88L173.64 5.88L173.64 14.59L178.77 14.59L178.77 15.68L172.47 15.68ZM188.15 15.68L188.15 5.88L194.17 5.88L194.17 6.97L189.32 6.97L189.32 10.22L194.08 10.22L194.08 11.31L189.32 11.31L189.32 15.68L188.15 15.68ZM219.28 15.68L219.28 5.88L225.30 5.88L225.30 6.97L220.46 6.97L220.46 10.22L225.22 10.22L225.22 11.31L220.46 11.31L220.46 15.68L219.28 15.68ZM240.87 12.15L240.87 15.68L239.69 15.68L239.69 12.40L239.69 12.40Q239.69 12.04 239.53 11.84L239.53 11.84L239.53 11.84Q239.36 11.65 238.94 11.65L238.94 11.65L235.89 11.65L235.89 15.68L234.71 15.68L234.71 5.88L238.21 5.88L238.21 5.88Q238.97 5.88 239.53 6.10L239.53 6.10L239.53 6.10Q240.09 6.31 240.46 6.68L240.46 6.68L240.46 6.68Q240.83 7.04 241.02 7.53L241.02 7.53L241.02 7.53Q241.21 8.01 241.21 8.54L241.21 8.54L241.21 8.96L241.21 8.96Q241.21 9.51 240.91 10.05L240.91 10.05L240.91 10.05Q240.60 10.60 239.97 10.89L239.97 10.89L239.97 11.06L239.97 11.06Q240.39 11.13 240.63 11.40L240.63 11.40L240.63 11.40Q240.87 11.66 240.87 12.15L240.87 12.15ZM235.89 6.97L235.89 10.56L238.07 10.56L238.07 10.56Q239.06 10.56 239.55 10.13L239.55 10.13L239.55 10.13Q240.03 9.70 240.03 8.88L240.03 8.88L240.03 8.62L240.03 8.62Q240.03 7.88 239.55 7.43L239.55 7.43L239.55 7.43Q239.06 6.97 238.07 6.97L238.07 6.97L235.89 6.97ZM249.93 11.87L249.93 9.69L249.93 9.69Q249.93 7.78 250.84 6.73L250.84 6.73L250.84 6.73Q251.75 5.68 253.37 5.68L253.37 5.68L253.37 5.68Q255.00 5.68 255.91 6.73L255.91 6.73L255.91 6.73Q256.82 7.78 256.82 9.69L256.82 9.69L256.82 11.87L256.82 11.87Q256.82 13.83 255.91 14.85L255.91 14.85L255.91 14.85Q255.00 15.88 253.37 15.88L253.37 15.88L253.37 15.88Q251.75 15.88 250.84 14.85L250.84 14.85L250.84 14.85Q249.93 13.83 249.93 11.87L249.93 11.87ZM253.37 14.78L253.37 14.78L253.37 14.78Q254.51 14.78 255.07 14.01L255.07 14.01L255.07 14.01Q255.64 13.23 255.64 11.79L255.64 11.79L255.64 9.77L255.64 9.77Q255.64 8.43 255.07 7.60L255.07 7.60L255.07 7.60Q254.51 6.78 253.37 6.78L253.37 6.78L253.37 6.78Q252.24 6.78 251.67 7.60L251.67 7.60L251.67 7.60Q251.10 8.43 251.10 9.77L251.10 9.77L251.10 11.79L251.10 11.79Q251.10 13.23 251.67 14.01L251.67 14.01L251.67 14.01Q252.24 14.78 253.37 14.78ZM265.30 15.68L265.30 5.88L267.54 5.88L268.86 15.18L269.02 15.18L270.34 5.88L272.58 5.88L272.58 15.68L271.49 15.68L271.49 6.38L271.32 6.38L270.00 15.68L267.88 15.68L266.56 6.38L266.39 6.38L266.39 15.68L265.30 15.68ZM302.39 9.21L302.39 8.71L302.39 8.71Q302.39 8.23 302.20 7.87L302.20 7.87L302.20 7.87Q302.01 7.50 301.69 7.27L301.69 7.27L301.69 7.27Q301.36 7.03 300.94 6.90L300.94 6.90L300.94 6.90Q300.52 6.78 300.06 6.78L300.06 6.78L300.06 6.78Q299.66 6.78 299.29 6.88L299.29 6.88L299.29 6.88Q298.93 6.99 298.64 7.18L298.64 7.18L298.64 7.18Q298.35 7.38 298.19 7.66L298.19 7.66L298.19 7.66Q298.02 7.95 298.02 8.33L298.02 8.33L298.02 8.41L298.02 8.41Q298.02 8.82 298.19 9.11L298.19 9.11L298.19 9.11Q298.35 9.39 298.68 9.60L298.68 9.60L298.68 9.60Q299.01 9.80 299.50 9.93L299.50 9.93L299.50 9.93Q299.99 10.07 300.65 10.16L300.65 10.16L300.65 10.16Q302.19 10.40 302.92 11.07L302.92 11.07L302.92 11.07Q303.65 11.73 303.65 12.85L303.65 12.85L303.65 13.02L303.65 13.02Q303.65 13.65 303.43 14.17L303.43 14.17L303.43 14.17Q303.21 14.70 302.79 15.08L302.79 15.08L302.79 15.08Q302.36 15.46 301.73 15.67L301.73 15.67L301.73 15.67Q301.10 15.88 300.27 15.88L300.27 15.88L300.27 15.88Q299.33 15.88 298.61 15.60L298.61 15.60L298.61 15.60Q297.89 15.33 297.41 14.85L297.41 14.85L297.41 14.85Q296.93 14.36 296.67 13.71L296.67 13.71L296.67 13.71Q296.42 13.06 296.42 12.29L296.42 12.29L296.42 11.87L297.60 11.87L297.60 12.21L297.60 12.21Q297.60 13.50 298.31 14.14L298.31 14.14L298.31 14.14Q299.01 14.78 300.27 14.78L300.27 14.78L300.27 14.78Q301.36 14.78 301.92 14.30L301.92 14.30L301.92 14.30Q302.47 13.82 302.47 13.02L302.47 13.02L302.47 12.94L302.47 12.94Q302.47 12.17 301.90 11.76L301.90 11.76L301.90 11.76Q301.34 11.35 300.06 11.17L300.06 11.17L300.06 11.17Q299.32 11.07 298.73 10.87L298.73 10.87L298.73 10.87Q298.13 10.67 297.71 10.34L297.71 10.34L297.71 10.34Q297.29 10.01 297.07 9.55L297.07 9.55L297.07 9.55Q296.84 9.09 296.84 8.46L296.84 8.46L296.84 8.29L296.84 8.29Q296.84 7.71 297.08 7.24L297.08 7.24L297.08 7.24Q297.32 6.76 297.75 6.41L297.75 6.41L297.75 6.41Q298.17 6.06 298.77 5.87L298.77 5.87L298.77 5.87Q299.36 5.68 300.08 5.68L300.08 5.68L300.08 5.68Q300.90 5.68 301.55 5.92L301.55 5.92L301.55 5.92Q302.20 6.16 302.65 6.56L302.65 6.56L302.65 6.56Q303.10 6.96 303.33 7.50L303.33 7.50L303.33 7.50Q303.56 8.04 303.56 8.62L303.56 8.62L303.56 9.21L302.39 9.21ZM312.20 6.97L312.20 5.88L319.09 5.88L319.09 6.97L316.23 6.97L316.23 15.68L315.06 15.68L315.06 6.97L312.20 6.97ZM334.28 12.15L334.28 15.68L333.10 15.68L333.10 12.40L333.10 12.40Q333.10 12.04 332.93 11.84L332.93 11.84L332.93 11.84Q332.77 11.65 332.35 11.65L332.35 11.65L329.29 11.65L329.29 15.68L328.12 15.68L328.12 5.88L331.62 5.88L331.62 5.88Q332.37 5.88 332.93 6.10L332.93 6.10L332.93 6.10Q333.49 6.31 333.87 6.68L333.87 6.68L333.87 6.68Q334.24 7.04 334.43 7.53L334.43 7.53L334.43 7.53Q334.61 8.01 334.61 8.54L334.61 8.54L334.61 8.96L334.61 8.96Q334.61 9.51 334.31 10.05L334.31 10.05L334.31 10.05Q334.01 10.60 333.38 10.89L333.38 10.89L333.38 11.06L333.38 11.06Q333.80 11.13 334.04 11.40L334.04 11.40L334.04 11.40Q334.28 11.66 334.28 12.15L334.28 12.15ZM329.29 6.97L329.29 10.56L331.48 10.56L331.48 10.56Q332.47 10.56 332.95 10.13L332.95 10.13L332.95 10.13Q333.44 9.70 333.44 8.88L333.44 8.88L333.44 8.62L333.44 8.62Q333.44 7.88 332.95 7.43L332.95 7.43L332.95 7.43Q332.47 6.97 331.48 6.97L331.48 6.97L329.29 6.97ZM343.81 15.68L343.81 5.88L349.75 5.88L349.75 6.97L344.99 6.97L344.99 10.22L349.66 10.22L349.66 11.31L344.99 11.31L344.99 14.59L349.83 14.59L349.83 15.68L343.81 15.68ZM364.66 9.21L364.66 8.71L364.66 8.71Q364.66 8.23 364.47 7.87L364.47 7.87L364.47 7.87Q364.28 7.50 363.96 7.27L363.96 7.27L363.96 7.27Q363.64 7.03 363.22 6.90L363.22 6.90L363.22 6.90Q362.80 6.78 362.33 6.78L362.33 6.78L362.33 6.78Q361.93 6.78 361.56 6.88L361.56 6.88L361.56 6.88Q361.20 6.99 360.91 7.18L360.91 7.18L360.91 7.18Q360.63 7.38 360.46 7.66L360.46 7.66L360.46 7.66Q360.29 7.95 360.29 8.33L360.29 8.33L360.29 8.41L360.29 8.41Q360.29 8.82 360.46 9.11L360.46 9.11L360.46 9.11Q360.63 9.39 360.95 9.60L360.95 9.60L360.95 9.60Q361.28 9.80 361.77 9.93L361.77 9.93L361.77 9.93Q362.26 10.07 362.92 10.16L362.92 10.16L362.92 10.16Q364.46 10.40 365.19 11.07L365.19 11.07L365.19 11.07Q365.92 11.73 365.92 12.85L365.92 12.85L365.92 13.02L365.92 13.02Q365.92 13.65 365.70 14.17L365.70 14.17L365.70 14.17Q365.48 14.70 365.06 15.08L365.06 15.08L365.06 15.08Q364.63 15.46 364.00 15.67L364.00 15.67L364.00 15.67Q363.37 15.88 362.54 15.88L362.54 15.88L362.54 15.88Q361.61 15.88 360.88 15.60L360.88 15.60L360.88 15.60Q360.16 15.33 359.68 14.85L359.68 14.85L359.68 14.85Q359.20 14.36 358.95 13.71L358.95 13.71L358.95 13.71Q358.69 13.06 358.69 12.29L358.69 12.29L358.69 11.87L359.87 11.87L359.87 12.21L359.87 12.21Q359.87 13.50 360.58 14.14L360.58 14.14L360.58 14.14Q361.28 14.78 362.54 14.78L362.54 14.78L362.54 14.78Q363.64 14.78 364.19 14.30L364.19 14.30L364.19 14.30Q364.74 13.82 364.74 13.02L364.74 13.02L364.74 12.94L364.74 12.94Q364.74 12.17 364.17 11.76L364.17 11.76L364.17 11.76Q363.61 11.35 362.33 11.17L362.33 11.17L362.33 11.17Q361.59 11.07 361.00 10.87L361.00 10.87L361.00 10.87Q360.40 10.67 359.98 10.34L359.98 10.34L359.98 10.34Q359.56 10.01 359.34 9.55L359.34 9.55L359.34 9.55Q359.11 9.09 359.11 8.46L359.11 8.46L359.11 8.29L359.11 8.29Q359.11 7.71 359.35 7.24L359.35 7.24L359.35 7.24Q359.59 6.76 360.02 6.41L360.02 6.41L360.02 6.41Q360.44 6.06 361.04 5.87L361.04 5.87L361.04 5.87Q361.63 5.68 362.35 5.68L362.35 5.68L362.35 5.68Q363.17 5.68 363.82 5.92L363.82 5.92L363.82 5.92Q364.48 6.16 364.92 6.56L364.92 6.56L364.92 6.56Q365.37 6.96 365.60 7.50L365.60 7.50L365.60 7.50Q365.83 8.04 365.83 8.62L365.83 8.62L365.83 9.21L364.66 9.21ZM380.23 9.21L380.23 8.71L380.23 8.71Q380.23 8.23 380.04 7.87L380.04 7.87L380.04 7.87Q379.85 7.50 379.53 7.27L379.53 7.27L379.53 7.27Q379.20 7.03 378.78 6.90L378.78 6.90L378.78 6.90Q378.36 6.78 377.90 6.78L377.90 6.78L377.90 6.78Q377.50 6.78 377.13 6.88L377.13 6.88L377.13 6.88Q376.77 6.99 376.48 7.18L376.48 7.18L376.48 7.18Q376.19 7.38 376.03 7.66L376.03 7.66L376.03 7.66Q375.86 7.95 375.86 8.33L375.86 8.33L375.86 8.41L375.86 8.41Q375.86 8.82 376.03 9.11L376.03 9.11L376.03 9.11Q376.19 9.39 376.52 9.60L376.52 9.60L376.52 9.60Q376.85 9.80 377.34 9.93L377.34 9.93L377.34 9.93Q377.83 10.07 378.49 10.16L378.49 10.16L378.49 10.16Q380.03 10.40 380.76 11.07L380.76 11.07L380.76 11.07Q381.49 11.73 381.49 12.85L381.49 12.85L381.49 13.02L381.49 13.02Q381.49 13.65 381.27 14.17L381.27 14.17L381.27 14.17Q381.05 14.70 380.62 15.08L380.62 15.08L380.62 15.08Q380.20 15.46 379.57 15.67L379.57 15.67L379.57 15.67Q378.94 15.88 378.11 15.88L378.11 15.88L378.11 15.88Q377.17 15.88 376.45 15.60L376.45 15.60L376.45 15.60Q375.73 15.33 375.25 14.85L375.25 14.85L375.25 14.85Q374.77 14.36 374.51 13.71L374.51 13.71L374.51 13.71Q374.26 13.06 374.26 12.29L374.26 12.29L374.26 11.87L375.44 11.87L375.44 12.21L375.44 12.21Q375.44 13.50 376.14 14.14L376.14 14.14L376.14 14.14Q376.85 14.78 378.11 14.78L378.11 14.78L378.11 14.78Q379.20 14.78 379.76 14.30L379.76 14.30L379.76 14.30Q380.31 13.82 380.31 13.02L380.31 13.02L380.31 12.94L380.31 12.94Q380.31 12.17 379.74 11.76L379.74 11.76L379.74 11.76Q379.18 11.35 377.90 11.17L377.90 11.17L377.90 11.17Q377.16 11.07 376.56 10.87L376.56 10.87L376.56 10.87Q375.97 10.67 375.55 10.34L375.55 10.34L375.55 10.34Q375.13 10.01 374.91 9.55L374.91 9.55L374.91 9.55Q374.68 9.09 374.68 8.46L374.68 8.46L374.68 8.29L374.68 8.29Q374.68 7.71 374.92 7.24L374.92 7.24L374.92 7.24Q375.16 6.76 375.58 6.41L375.58 6.41L375.58 6.41Q376.01 6.06 376.61 5.87L376.61 5.87L376.61 5.87Q377.20 5.68 377.92 5.68L377.92 5.68L377.92 5.68Q378.74 5.68 379.39 5.92L379.39 5.92L379.39 5.92Q380.04 6.16 380.49 6.56L380.49 6.56L380.49 6.56Q380.94 6.96 381.17 7.50L381.17 7.50L381.17 7.50Q381.40 8.04 381.40 8.62L381.40 8.62L381.40 9.21L380.23 9.21ZM405.61 6.97L405.61 5.88L412.50 5.88L412.50 6.97L409.64 6.97L409.64 15.68L408.46 15.68L408.46 6.97L405.61 6.97ZM421.36 15.68L421.36 5.88L422.53 5.88L422.53 10.22L426.71 10.22L426.71 5.88L427.88 5.88L427.88 15.68L426.71 15.68L426.71 11.31L422.53 11.31L422.53 15.68L421.36 15.68ZM443.25 12.15L443.25 15.68L442.08 15.68L442.08 12.40L442.08 12.40Q442.08 12.04 441.91 11.84L441.91 11.84L441.91 11.84Q441.74 11.65 441.32 11.65L441.32 11.65L438.27 11.65L438.27 15.68L437.09 15.68L437.09 5.88L440.59 5.88L440.59 5.88Q441.35 5.88 441.91 6.10L441.91 6.10L441.91 6.10Q442.47 6.31 442.84 6.68L442.84 6.68L442.84 6.68Q443.21 7.04 443.40 7.53L443.40 7.53L443.40 7.53Q443.59 8.01 443.59 8.54L443.59 8.54L443.59 8.96L443.59 8.96Q443.59 9.51 443.29 10.05L443.29 10.05L443.29 10.05Q442.99 10.60 442.36 10.89L442.36 10.89L442.36 11.06L442.36 11.06Q442.78 11.13 443.02 11.40L443.02 11.40L443.02 11.40Q443.25 11.66 443.25 12.15L443.25 12.15ZM438.27 6.97L438.27 10.56L440.45 10.56L440.45 10.56Q441.45 10.56 441.93 10.13L441.93 10.13L441.93 10.13Q442.41 9.70 442.41 8.88L442.41 8.88L442.41 8.62L442.41 8.62Q442.41 7.88 441.93 7.43L441.93 7.43L441.93 7.43Q441.45 6.97 440.45 6.97L440.45 6.97L438.27 6.97ZM452.31 11.87L452.31 9.69L452.31 9.69Q452.31 7.78 453.22 6.73L453.22 6.73L453.22 6.73Q454.13 5.68 455.76 5.68L455.76 5.68L455.76 5.68Q457.38 5.68 458.29 6.73L458.29 6.73L458.29 6.73Q459.20 7.78 459.20 9.69L459.20 9.69L459.20 11.87L459.20 11.87Q459.20 13.83 458.29 14.85L458.29 14.85L458.29 14.85Q457.38 15.88 455.76 15.88L455.76 15.88L455.76 15.88Q454.13 15.88 453.22 14.85L453.22 14.85L453.22 14.85Q452.31 13.83 452.31 11.87L452.31 11.87ZM455.76 14.78L455.76 14.78L455.76 14.78Q456.89 14.78 457.46 14.01L457.46 14.01L457.46 14.01Q458.02 13.23 458.02 11.79L458.02 11.79L458.02 9.77L458.02 9.77Q458.02 8.43 457.46 7.60L457.46 7.60L457.46 7.60Q456.89 6.78 455.76 6.78L455.76 6.78L455.76 6.78Q454.62 6.78 454.05 7.60L454.05 7.60L454.05 7.60Q453.49 8.43 453.49 9.77L453.49 9.77L453.49 11.79L453.49 11.79Q453.49 13.23 454.05 14.01L454.05 14.01L454.05 14.01Q454.62 14.78 455.76 14.78ZM467.96 5.88L469.14 5.88L469.14 12.38L469.14 12.38Q469.14 13.57 469.69 14.17L469.69 14.17L469.69 14.17Q470.25 14.78 471.32 14.78L471.32 14.78L471.32 14.78Q472.40 14.78 472.95 14.17L472.95 14.17L472.95 14.17Q473.51 13.57 473.51 12.38L473.51 12.38L473.51 5.88L474.68 5.88L474.68 12.38L474.68 12.38Q474.68 14.08 473.79 14.98L473.79 14.98L473.79 14.98Q472.89 15.88 471.32 15.88L471.32 15.88L471.32 15.88Q469.76 15.88 468.86 14.98L468.86 14.98L468.86 14.98Q467.96 14.08 467.96 12.38L467.96 12.38L467.96 5.88ZM485.95 12.07L485.95 10.98L490.32 10.98L490.32 15.68L489.23 15.68L489.23 14.50L489.06 14.50L489.06 14.50Q488.82 15.12 488.22 15.50L488.22 15.50L488.22 15.50Q487.62 15.88 486.82 15.88L486.82 15.88L486.82 15.88Q485.24 15.88 484.34 14.85L484.34 14.85L484.34 14.85Q483.43 13.83 483.43 11.87L483.43 11.87L483.43 9.69L483.43 9.69Q483.43 7.78 484.34 6.73L484.34 6.73L484.34 6.73Q485.25 5.68 486.88 5.68L486.88 5.68L486.88 5.68Q487.72 5.68 488.36 5.96L488.36 5.96L488.36 5.96Q489.01 6.23 489.44 6.71L489.44 6.71L489.44 6.71Q489.87 7.20 490.10 7.85L490.10 7.85L490.10 7.85Q490.32 8.50 490.32 9.24L490.32 9.24L490.32 9.41L489.15 9.41L489.15 9.24L489.15 9.24Q489.15 8.76 489.01 8.32L489.01 8.32L489.01 8.32Q488.88 7.87 488.61 7.53L488.61 7.53L488.61 7.53Q488.33 7.18 487.91 6.98L487.91 6.98L487.91 6.98Q487.48 6.78 486.88 6.78L486.88 6.78L486.88 6.78Q485.74 6.78 485.18 7.60L485.18 7.60L485.18 7.60Q484.61 8.43 484.61 9.77L484.61 9.77L484.61 11.79L484.61 11.79Q484.61 13.23 485.18 14.01L485.18 14.01L485.18 14.01Q485.74 14.78 486.91 14.78L486.91 14.78L486.91 14.78Q487.96 14.78 488.55 14.11L488.55 14.11L488.55 14.11Q489.15 13.44 489.15 12.24L489.15 12.24L489.15 12.07L485.95 12.07ZM499.20 15.68L499.20 5.88L500.37 5.88L500.37 10.22L504.55 10.22L504.55 5.88L505.72 5.88L505.72 15.68L504.55 15.68L504.55 11.31L500.37 11.31L500.37 15.68L499.20 15.68ZM530.15 6.97L530.15 5.88L537.04 5.88L537.04 6.97L534.18 6.97L534.18 15.68L533.01 15.68L533.01 6.97L530.15 6.97ZM545.90 15.68L545.90 5.88L547.08 5.88L547.08 10.22L551.25 10.22L551.25 5.88L552.43 5.88L552.43 15.68L551.25 15.68L551.25 11.31L547.08 11.31L547.08 15.68L545.90 15.68ZM561.76 15.68L561.76 5.88L567.70 5.88L567.70 6.97L562.94 6.97L562.94 10.22L567.62 10.22L567.62 11.31L562.94 11.31L562.94 14.59L567.78 14.59L567.78 15.68L561.76 15.68ZM583.37 12.15L583.37 15.68L582.19 15.68L582.19 12.40L582.19 12.40Q582.19 12.04 582.02 11.84L582.02 11.84L582.02 11.84Q581.85 11.65 581.43 11.65L581.43 11.65L578.38 11.65L578.38 15.68L577.21 15.68L577.21 5.88L580.71 5.88L580.71 5.88Q581.46 5.88 582.02 6.10L582.02 6.10L582.02 6.10Q582.58 6.31 582.95 6.68L582.95 6.68L582.95 6.68Q583.32 7.04 583.51 7.53L583.51 7.53L583.51 7.53Q583.70 8.01 583.70 8.54L583.70 8.54L583.70 8.96L583.70 8.96Q583.70 9.51 583.40 10.05L583.40 10.05L583.40 10.05Q583.10 10.60 582.47 10.89L582.47 10.89L582.47 11.06L582.47 11.06Q582.89 11.13 583.13 11.40L583.13 11.40L583.13 11.40Q583.37 11.66 583.37 12.15L583.37 12.15ZM578.38 6.97L578.38 10.56L580.57 10.56L580.57 10.56Q581.56 10.56 582.04 10.13L582.04 10.13L582.04 10.13Q582.53 9.70 582.53 8.88L582.53 8.88L582.53 8.62L582.53 8.62Q582.53 7.88 582.04 7.43L582.04 7.43L582.04 7.43Q581.56 6.97 580.57 6.97L580.57 6.97L578.38 6.97ZM598.68 15.68L597.97 13.24L593.77 13.24L593.05 15.68L591.79 15.68L594.76 5.88L596.97 5.88L599.94 15.68L598.68 15.68ZM595.95 6.38L595.78 6.38L594.09 12.15L597.65 12.15L595.95 6.38ZM611.84 11.65L609.52 11.65L609.52 15.68L608.34 15.68L608.34 5.88L611.84 5.88L611.84 5.88Q612.60 5.88 613.16 6.10L613.16 6.10L613.16 6.10Q613.72 6.31 614.09 6.68L614.09 6.68L614.09 6.68Q614.46 7.04 614.65 7.53L614.65 7.53L614.65 7.53Q614.84 8.01 614.84 8.54L614.84 8.54L614.84 8.96L614.84 8.96Q614.84 9.49 614.65 9.98L614.65 9.98L614.65 9.98Q614.46 10.47 614.08 10.84L614.08 10.84L614.08 10.84Q613.70 11.21 613.14 11.43L613.14 11.43L613.14 11.43Q612.58 11.65 611.84 11.65L611.84 11.65ZM609.52 6.97L609.52 10.56L611.70 10.56L611.70 10.56Q613.66 10.56 613.66 8.88L613.66 8.88L613.66 8.62L613.66 8.62Q613.66 7.88 613.18 7.43L613.18 7.43L613.18 7.43Q612.70 6.97 611.70 6.97L611.70 6.97L609.52 6.97ZM626.42 15.68L626.42 12.24L626.16 12.24L623.10 5.88L624.41 5.88L626.92 11.23L627.09 11.23L629.59 5.88L630.91 5.88L627.84 12.24L627.59 12.24L627.59 15.68L626.42 15.68Z"></path></g></svg>